<?xml version="1.0" standalone="no"?>
<!DOCTYPE svg PUBLIC "-//W3C//DTD SVG 20010904//EN"
 "http://www.w3.org/TR/2001/REC-SVG-20010904/DTD/svg10.dtd">
<svg version="1.0" xmlns="http://www.w3.org/2000/svg"
 width="512.000000pt" height="512.000000pt" viewBox="0 0 512.000000 512.000000"
 preserveAspectRatio="xMidYMid meet">
<metadata>
Created by potrace 1.14, written by Peter Selinger 2001-2017
</metadata>
<g transform="translate(0.000000,512.000000) scale(0.100000,-0.100000)"
fill="#000000" stroke="none">
<path d="M2885 4085 c-44 -8 -114 -27 -155 -41 -307 -107 -545 -365 -626 -681
-23 -89 -25 -112 -21 -253 5 -182 24 -265 89 -399 80 -161 191 -288 337 -386
63 -41 69 -48 61 -69 -22 -60 -220 -746 -220 -765 0 -12 -4 -19 -10 -16 -5 3
-10 15 -10 27 0 26 -529 1749 -543 1766 -7 9 -53 12 -186 10 l-176 -3 3 -24
c2 -13 141 -449 308 -970 421 -1307 407 -1265 424 -1278 10 -9 64 -12 171 -13
136 0 158 2 171 18 8 9 90 276 182 592 93 316 169 576 171 578 1 1 43 -2 94
-8 67 -9 115 -9 182 0 51 6 94 8 97 6 3 -3 81 -266 174 -583 106 -362 175
-583 185 -591 25 -18 316 -17 332 2 12 14 716 2188 727 2245 l7 31 -177 0
c-173 0 -177 0 -186 -22 -18 -40 -538 -1733 -542 -1764 l-4 -29 -8 30 c-4 17
-57 201 -117 409 -60 209 -108 380 -106 381 30 17 145 104 184 140 110 98 226
283 267 425 24 82 46 217 46 280 0 75 -26 220 -56 310 -81 244 -273 457 -510
566 -171 79 -390 110 -559 79z m135 -459 c0 -434 5 -427 -132 -186 -37 63
-107 186 -157 273 -50 87 -91 160 -91 162 0 6 150 61 200 73 59 15 86 19 138
21 l42 1 0 -344z m182 330 c41 -8 111 -29 157 -46 95 -37 93 -24 17 -154 -30
-50 -99 -170 -154 -266 -120 -208 -128 -221 -146 -214 -11 4 -14 67 -13 350
l0 344 33 0 c18 0 66 -6 106 -14z m-540 -216 c30 -52 88 -153 130 -225 146
-254 141 -244 118 -238 -11 3 -26 0 -34 -6 -10 -9 -39 4 -127 55 -63 36 -185
106 -271 156 l-157 90 28 42 c16 22 47 62 70 88 49 55 173 150 182 140 4 -4
31 -50 61 -102z m974 -14 c33 -34 74 -82 92 -108 l32 -46 -123 -70 c-216 -124
-371 -214 -391 -228 -14 -10 -23 -10 -33 -3 -7 6 -24 9 -38 7 -13 -3 -23 -2
-21 1 1 3 76 133 165 288 l163 283 46 -32 c26 -18 74 -59 108 -92z m-1062
-352 c149 -87 273 -158 275 -160 1 -1 -1 -15 -6 -31 l-10 -28 -316 -1 -317 -2
0 35 c0 55 29 182 62 266 16 42 32 77 35 77 3 0 127 -70 277 -156z m1234 109
c43 -102 91 -317 73 -327 -3 -2 -145 -4 -314 -4 l-308 0 -10 26 c-5 14 -8 29
-6 35 3 9 524 315 538 316 4 1 16 -20 27 -46z m-988 -375 c0 -2 -6 -23 -14
-48 -10 -36 -22 -50 -57 -71 -105 -62 -448 -259 -453 -259 -2 0 -19 37 -36 82
-33 85 -60 205 -60 264 l0 34 310 0 c171 0 310 -1 310 -2z m1062 -3 c19 -20
-51 -302 -91 -364 -7 -10 -59 16 -237 119 -126 73 -236 139 -245 147 -9 8 -19
26 -22 41 -3 15 -9 35 -12 45 -7 16 11 17 297 17 168 0 307 -2 310 -5z m-1178
-391 c-37 -126 -75 -246 -86 -267 l-19 -38 -47 33 c-62 44 -160 141 -200 200
l-32 47 107 61 c60 33 160 91 223 129 63 37 116 67 118 65 2 -1 -27 -105 -64
-230z m843 96 l213 -122 -29 -41 c-49 -72 -109 -134 -178 -186 -60 -45 -68
-48 -79 -33 -6 9 -41 121 -78 247 -37 127 -69 238 -72 249 -4 10 -2 16 2 14 5
-3 105 -60 221 -128z m-422 -270 c30 -107 59 -205 64 -216 8 -19 6 -23 -21
-28 -17 -3 -47 -6 -68 -6 l-38 0 1 225 c0 124 2 224 3 222 2 -1 28 -90 59
-197z m-105 -52 l0 -200 -60 4 c-33 2 -62 6 -64 9 -8 7 108 397 117 392 4 -2
7 -94 7 -205z"/>
<path d="M957 3274 c-4 -4 -7 -513 -7 -1132 0 -1060 1 -1126 18 -1138 25 -19
305 -20 321 0 8 10 10 316 9 1142 l-3 1129 -166 3 c-91 1 -168 -1 -172 -4z"/>
</g>
</svg>
